<?xml version="1.0" encoding="UTF-8" standalone="no"?>
<svg
   xmlns:dc="http://purl.org/dc/elements/1.1/"
   xmlns:cc="http://creativecommons.org/ns#"
   xmlns:rdf="http://www.w3.org/1999/02/22-rdf-syntax-ns#"
   xmlns:svg="http://www.w3.org/2000/svg"
   xmlns="http://www.w3.org/2000/svg"
   xmlns:sodipodi="http://sodipodi.sourceforge.net/DTD/sodipodi-0.dtd"
   xmlns:inkscape="http://www.inkscape.org/namespaces/inkscape"
   width="8.4666672mm"
   height="8.4666662mm"
   viewBox="0 0 8.4666672 8.4666662"
   version="1.1"
   id="svg8"
   inkscape:version="1.0.1 (3bc2e813f5, 2020-09-07)"
   sodipodi:docname="bg_logo.svg"
   inkscape:export-filename="C:\Users\bengl\OneDrive\Documents\portfolio\portfolio\svg\bg_logo.png"
   inkscape:export-xdpi="96"
   inkscape:export-ydpi="96">
  <defs
     id="defs2" />
  <sodipodi:namedview
     id="base"
     pagecolor="#ffffff"
     bordercolor="#666666"
     borderopacity="1.0"
     inkscape:pageopacity="0.0"
     inkscape:pageshadow="2"
     inkscape:zoom="16"
     inkscape:cx="8.0190018"
     inkscape:cy="12.836075"
     inkscape:document-units="px"
     inkscape:current-layer="layer1"
     inkscape:document-rotation="0"
     showgrid="false"
     fit-margin-top="0"
     fit-margin-left="0"
     fit-margin-right="0"
     fit-margin-bottom="0"
     inkscape:window-width="1920"
     inkscape:window-height="986"
     inkscape:window-x="-11"
     inkscape:window-y="-11"
     inkscape:window-maximized="1" />
  <metadata
     id="metadata5">
    <rdf:RDF>
      <cc:Work
         rdf:about="">
        <dc:format>image/svg+xml</dc:format>
        <dc:type
           rdf:resource="http://purl.org/dc/dcmitype/StillImage" />
        <dc:title></dc:title>
      </cc:Work>
    </rdf:RDF>
  </metadata>
  <g
     inkscape:label="Layer 1"
     inkscape:groupmode="layer"
     id="layer1"
     transform="translate(-0.13228989,-0.13228989)">
    <ellipse
       style="fill:#224422;fill-opacity:1;stroke:none;stroke-width:0.265;stroke-miterlimit:4;stroke-dasharray:none;stroke-opacity:0.997207;paint-order:stroke fill markers"
       id="path833"
       cx="4.3656225"
       cy="4.365623"
       rx="4.2333326"
       ry="4.2333331" />
    <path
       id="path833-9"
       style="fill:#387038;fill-opacity:1;stroke:none;stroke-width:0.265;stroke-miterlimit:4;stroke-dasharray:none;stroke-opacity:0.997207;paint-order:stroke fill markers"
       d="M 4.3656233,0.13229003 A 4.2333335,4.2333333 0 0 0 0.13229003,4.3656293 4.2333335,4.2333333 0 0 0 1.1611058,7.1318789 C 2.103688,6.4483877 3.439617,5.8137089 4.5929997,6.5167896 6.1412156,7.460554 7.3619071,6.9440011 8.2532619,6.0410358 A 4.2333335,4.2333333 0 0 0 8.5989566,4.3656293 4.2333335,4.2333333 0 0 0 4.3656233,0.13229003 Z"
       inkscape:export-xdpi="96"
       inkscape:export-ydpi="96" />
    <path
       id="path833-9-8"
       style="fill:#56a956;fill-opacity:1;stroke:none;stroke-width:0.265;stroke-miterlimit:4;stroke-dasharray:none;stroke-opacity:0.997207;paint-order:stroke fill markers"
       d="M 4.3656233,0.13229003 A 4.2333335,4.2333333 0 0 0 0.13431575,4.2351689 C 1.2743187,3.7727914 2.6282401,3.5138257 3.8341415,4.0588779 5.7984054,4.9467007 7.3719564,4.5423759 8.5524062,3.7396081 A 4.2333335,4.2333333 0 0 0 4.3656233,0.13229003 Z" />
    <path
       id="path833-9-1"
       style="fill:#bbddbb;fill-opacity:1;stroke:none;stroke-width:0.26511249;stroke-miterlimit:4;stroke-dasharray:none;stroke-opacity:0.997207;paint-order:stroke fill markers"
       d="M 4.3656233,0.13229003 A 4.2333335,4.2333333 0 0 0 1.0159157,1.7770857 C 1.8740534,1.2930582 2.9058542,1.0068439 3.8224007,1.5655538 5.2527217,2.4374514 6.4036763,2.0631161 7.273518,1.2890704 A 4.2333335,4.2333333 0 0 0 4.3656233,0.13229003 Z" />
  </g>
  <g
     inkscape:groupmode="layer"
     id="layer2"
     inkscape:label="bg" />
</svg>
