<?xml version="1.0" encoding="UTF-8" standalone="no"?>
<svg
   xmlns:osb="http://www.openswatchbook.org/uri/2009/osb"
   xmlns:dc="http://purl.org/dc/elements/1.1/"
   xmlns:cc="http://creativecommons.org/ns#"
   xmlns:rdf="http://www.w3.org/1999/02/22-rdf-syntax-ns#"
   xmlns:svg="http://www.w3.org/2000/svg"
   xmlns="http://www.w3.org/2000/svg"
   xmlns:sodipodi="http://sodipodi.sourceforge.net/DTD/sodipodi-0.dtd"
   xmlns:inkscape="http://www.inkscape.org/namespaces/inkscape"
   width="500"
   height="500"
   viewBox="0 0 132.29166 132.29166"
   version="1.1"
   id="svg8"
   sodipodi:docname="project_icon.svg"
   inkscape:export-filename="C:\Users\bengl\OneDrive\Documents\portfolio_website\svg\project_icon.png"
   inkscape:export-xdpi="96"
   inkscape:export-ydpi="96"
   inkscape:version="1.0.1 (3bc2e813f5, 2020-09-07)">
  <defs
     id="defs2">
    <linearGradient
       id="linearGradient866"
       osb:paint="gradient">
      <stop
         style="stop-color:#000000;stop-opacity:1;"
         offset="0"
         id="stop862" />
      <stop
         style="stop-color:#000000;stop-opacity:0;"
         offset="1"
         id="stop864" />
    </linearGradient>
  </defs>
  <sodipodi:namedview
     id="base"
     pagecolor="#ffffff"
     bordercolor="#666666"
     borderopacity="1.0"
     inkscape:pageopacity="0.0"
     inkscape:pageshadow="2"
     inkscape:zoom="0.34119669"
     inkscape:cx="755.5685"
     inkscape:cy="194.26616"
     inkscape:document-units="mm"
     inkscape:current-layer="layer1"
     inkscape:document-rotation="0"
     showgrid="false"
     inkscape:window-width="1920"
     inkscape:window-height="986"
     inkscape:window-x="-11"
     inkscape:window-y="-11"
     inkscape:window-maximized="1"
     fit-margin-top="0"
     fit-margin-left="0"
     fit-margin-right="0"
     fit-margin-bottom="0"
     units="px"
     showborder="false" />
  <metadata
     id="metadata5">
    <rdf:RDF>
      <cc:Work
         rdf:about="">
        <dc:format>image/svg+xml</dc:format>
        <dc:type
           rdf:resource="http://purl.org/dc/dcmitype/StillImage" />
        <dc:title />
      </cc:Work>
    </rdf:RDF>
  </metadata>
  <g
     inkscape:groupmode="layer"
     id="layer4"
     inkscape:label="background"
     transform="translate(-38.970535,-104.87654)">
    <rect
       style="fill:#262626;fill-opacity:1;stroke:#8f8f8f;stroke-width:0;stroke-linecap:round;stroke-linejoin:round;stroke-miterlimit:4;stroke-dasharray:none;stroke-opacity:1;paint-order:markers stroke fill"
       id="rect1792"
       width="132.29167"
       height="132.29167"
       x="41.438023"
       y="106.24736"
       inkscape:export-xdpi="19.200001"
       inkscape:export-ydpi="19.200001" />
  </g>
  <g
     inkscape:label="Layer 1"
     inkscape:groupmode="layer"
     id="layer1"
     style="display:inline"
     transform="translate(-38.970535,-104.87654)">
    <path
       id="path982"
       style="fill:none;fill-opacity:1;fill-rule:evenodd;stroke:#3d3d3d;stroke-width:6.61459;stroke-linecap:round;stroke-linejoin:round;stroke-miterlimit:4;stroke-dasharray:none;stroke-opacity:1;paint-order:fill markers stroke"
       d="m 113.89065,139.56113 h 23.42371 l -23.42371,-23.2137 z m -32.063507,-23.2137 c -4.649872,0 -8.393682,3.71026 -8.393682,8.31846 v 63.55228 c 0,4.60821 3.74381,8.31846 8.393682,8.31846 h 47.093477 c 4.64985,0 8.39367,-3.71025 8.39367,-8.31846 l 7e-5,-48.65704 h -23.42371 v -23.2137 z m -21.291942,21.10113 c -4.649869,0 -8.393684,3.71025 -8.393684,8.31845 v 63.55229 c 0,4.60819 3.743815,8.31846 8.393684,8.31846 h 47.093469 c 4.64987,0 8.39366,-3.71027 8.39366,-8.31846 V 196.53663 H 81.827143 c -4.649872,0 -8.393682,-3.71025 -8.393682,-8.31846 v -50.76961 z" />
  </g>
  <g
     inkscape:groupmode="layer"
     id="layer2"
     inkscape:label="light"
     style="display:inline"
     transform="translate(-38.970535,-104.87654)">
    <g
       inkscape:groupmode="layer"
       id="layer3"
       inkscape:label="sublight"
       style="display:inline;mix-blend-mode:normal">
      <path
         id="rect1584-6-0"
         style="display:inline;fill:#262626;fill-opacity:1;stroke:#262626;stroke-width:19.8438;stroke-linecap:round;stroke-linejoin:round;stroke-miterlimit:4;stroke-dasharray:none;stroke-opacity:1;paint-order:fill markers stroke"
         d="m 133.05847,217.80486 h 13.06247 v 9.97996 h -13.06247 z m 6.22261,-54.10341 c -13.02236,0.024 -23.56487,9.66892 -23.56447,21.55758 4e-5,8.6373 5.6472,16.44063 14.34978,19.8289 v 12.71699 h 18.70827 v -12.7893 c 8.6049,-3.4285 14.16739,-11.18527 14.16773,-19.75659 4.2e-4,-11.90589 -10.57162,-21.55767 -23.61288,-21.55758 -0.017,-1e-5 -0.0324,-1e-5 -0.0484,0 z"
         inkscape:export-xdpi="19.200001"
         inkscape:export-ydpi="19.200001" />
    </g>
    <path
       id="path1737"
       style="fill:none;fill-opacity:1;stroke:#3d3d3d;stroke-width:6.61459;stroke-linecap:round;stroke-linejoin:round;stroke-miterlimit:4;stroke-dasharray:none;stroke-opacity:1;paint-order:markers fill stroke"
       d="m 126.84124,183.28315 a 12.686251,11.369964 0 0 1 9.37288,-8.88145 m -3.15566,43.4032 h 13.06247 v 9.97997 h -13.06247 z m 6.22262,-54.10345 c -13.02236,0.024 -23.56487,9.66892 -23.56447,21.55758 4e-5,8.6373 5.6472,16.44063 14.34978,19.8289 v 12.71699 h 18.70827 v -12.7893 c 8.6049,-3.4285 14.16739,-11.18527 14.16773,-19.75659 4.2e-4,-11.90589 -10.57162,-21.55767 -23.61288,-21.55758 -0.017,-1e-5 -0.0324,-1e-5 -0.0484,0 z" />
  </g>
</svg>
