<?xml version="1.0" encoding="UTF-8"?>
<svg width="2.6458mm" height="2.6458mm" version="1.1" viewBox="0 0 2.6458 2.6458" xmlns="http://www.w3.org/2000/svg" xmlns:cc="http://creativecommons.org/ns#" xmlns:dc="http://purl.org/dc/elements/1.1/" xmlns:rdf="http://www.w3.org/1999/02/22-rdf-syntax-ns#">
		<metadata>
		 <rdf:RDF>
			<cc:Work rdf:about="">
			 <dc:format>image/svg+xml</dc:format>
			 <dc:type rdf:resource="http://purl.org/dc/dcmitype/StillImage"/>
			 <dc:title/>
			</cc:Work>
		 </rdf:RDF>
		</metadata>
		<symbol id="bg">
		<g transform="translate(-30.551 -96.652)">
		 <rect x="48.882" y="100.26" width="2.6458" height="2.6458" fill="none" stroke-width=".26458"/>
		</g>
		<g display="none">
		 <rect x="-2.7935e-5" y="-3.9922e-5" width="2.6458" height="2.6458" fill="#0f0"/>
		</g>
		<g>
		 <path transform="scale(.26458)" d="m8.002 0.46289c-0.085143 0.0041161-0.17775 0.018821-0.2793 0.048828-0.81237 0.24006-1.0007 1.6357-1.7715 1.5508-0.77077-0.084951-1.4076-0.47345-1.7129-0.47266-0.67314 0.00174-0.83677 0.48946-1.5195 1.0859-0.55972 0.48891-1.0465-0.44355-1.5898-0.53711-0.368-0.063371-0.77378 0.13765-1.1289 0.38477v7.4766h10v-8.9961c-0.23295 0.042164-0.5024 0.076957-0.74805 0.035156-0.42029-0.071518-0.654-0.60498-1.25-0.57617z" fill="#0f0"/>
		 <path transform="scale(.26458)" d="m9.2266 2.707c-0.11897 0.0041161-0.24678 0.020774-0.38867 0.050781-1.1351 0.24006-1.3996 1.6338-2.4766 1.5488s-1.9679-0.47345-2.3945-0.47266c-0.94057 0.0017401-1.169 0.48946-2.123 1.0859-0.65024 0.40649-1.2305-0.16437-1.8438-0.42383v5.5039h10v-7.127c-0.21429-0.097028-0.45269-0.17711-0.77344-0.16602z" fill="#f0f"/>
		 <path transform="scale(.26458)" d="m10 4.7559c-0.00357 5.762e-4 -0.00618 0.00137-0.00977 0.00195-1.4647 0.24006-1.8056 1.6338-3.1953 1.5488-1.3897-0.084951-2.5374-0.47345-3.0879-0.47266-1.2137 0.0017401-1.5092 0.48946-2.7402 1.0859-0.33404 0.16183-0.65319 0.16135-0.9668 0.09375v2.9863h10z" fill="#ff0"/>
		 <path transform="scale(.26458)" d="m10 7.1074c-0.96296 0.48907-1.5176 1.2632-2.8008 1.1992-1.7025-0.084951-3.1108-0.47345-3.7852-0.47266-1.4868 0.0017401-1.8474 0.48946-3.3555 1.0859-0.019821 0.0078385-0.038855 0.0085077-0.058594 0.015625v1.0645h10z" fill="#00f"/>
		</g>
	</symbol>
	 </svg>
