<?xml version="1.0" encoding="UTF-8" standalone="no"?>
<svg
   xmlns:dc="http://purl.org/dc/elements/1.1/"
   xmlns:cc="http://creativecommons.org/ns#"
   xmlns:rdf="http://www.w3.org/1999/02/22-rdf-syntax-ns#"
   xmlns:svg="http://www.w3.org/2000/svg"
   xmlns="http://www.w3.org/2000/svg"
   xmlns:sodipodi="http://sodipodi.sourceforge.net/DTD/sodipodi-0.dtd"
   xmlns:inkscape="http://www.inkscape.org/namespaces/inkscape"
   height="100"
   style="clip-rule:evenodd;fill-rule:evenodd;stroke-linejoin:round;stroke-miterlimit:2"
   version="1.1"
   viewBox="0 0 100 100"
   width="100"
   xml:space="preserve"
   id="svg2452"
   sodipodi:docname="iconfinder_Rounded_Linkedin2_svg_5282542.svg"
   inkscape:version="1.0.1 (3bc2e813f5, 2020-09-07)"><metadata
     id="metadata2458"><rdf:RDF><cc:Work
         rdf:about=""><dc:format>image/svg+xml</dc:format><dc:type
           rdf:resource="http://purl.org/dc/dcmitype/StillImage" /><dc:title></dc:title></cc:Work></rdf:RDF></metadata><defs
     id="defs2456" /><sodipodi:namedview
     pagecolor="#ffffff"
     bordercolor="#666666"
     borderopacity="1"
     objecttolerance="10"
     gridtolerance="10"
     guidetolerance="10"
     inkscape:pageopacity="0"
     inkscape:pageshadow="2"
     inkscape:window-width="1920"
     inkscape:window-height="986"
     id="namedview2454"
     showgrid="false"
     inkscape:zoom="4.5188543"
     inkscape:cx="107.07654"
     inkscape:cy="59.141991"
     inkscape:window-x="-11"
     inkscape:window-y="-11"
     inkscape:window-maximized="1"
     inkscape:current-layer="svg2452"
     fit-margin-top="0"
     fit-margin-left="0"
     fit-margin-right="0"
     fit-margin-bottom="0" /><path
     d="M 87.782422,0 C 94.525586,0 100,5.4746094 100,12.217578 V 87.782422 C 100,94.525391 94.525391,100 87.782422,100 H 12.217578 C 5.4746094,100 0,94.525391 0,87.782422 V 12.217578 C 0,5.4746094 5.4744141,0 12.217578,0 Z M 31.340039,82.671484 V 38.586133 h -14.65625 v 44.085351 z m 52.839648,0 V 57.39043 c 0,-13.541602 -7.230078,-19.841016 -16.871289,-19.841016 -7.774218,0 -11.25664,4.275586 -13.206445,7.278516 V 38.586133 H 39.449414 c 0.194336,4.136914 0,44.085351 0,44.085351 H 54.101758 V 58.051172 c 0,-1.317969 0.09492,-2.635156 0.483203,-3.577149 1.057422,-2.631836 3.470117,-5.358203 7.518359,-5.358203 5.299805,0 7.423242,4.044336 7.423242,9.968164 v 23.5875 z M 24.110937,17.328516 c -5.014453,0 -8.290624,3.296679 -8.290624,7.617578 0,4.230078 3.176562,7.617578 8.096679,7.617578 h 0.09453 c 5.110352,0 8.291407,-3.3875 8.291407,-7.617578 -0.09473,-4.314844 -3.172071,-7.608203 -8.191993,-7.617578 z"
     id="path2450"
     style="fill:#999999;fill-opacity:1;stroke-width:0.999999" /></svg>
