<?xml version="1.0" encoding="UTF-8" standalone="no"?>
<svg
   xmlns:dc="http://purl.org/dc/elements/1.1/"
   xmlns:cc="http://creativecommons.org/ns#"
   xmlns:rdf="http://www.w3.org/1999/02/22-rdf-syntax-ns#"
   xmlns:svg="http://www.w3.org/2000/svg"
   xmlns="http://www.w3.org/2000/svg"
   xmlns:sodipodi="http://sodipodi.sourceforge.net/DTD/sodipodi-0.dtd"
   xmlns:inkscape="http://www.inkscape.org/namespaces/inkscape"
   enable-background="new 0 0 32 32"
   height="100"
   id="Layer_1"
   version="1.1"
   viewBox="0 0 100 100"
   width="100"
   xml:space="preserve"
   sodipodi:docname="iconfinder_mail_115714.svg"
   inkscape:version="1.0.1 (3bc2e813f5, 2020-09-07)"><metadata
     id="metadata1877"><rdf:RDF><cc:Work
         rdf:about=""><dc:format>image/svg+xml</dc:format><dc:type
           rdf:resource="http://purl.org/dc/dcmitype/StillImage" /><dc:title></dc:title></cc:Work></rdf:RDF></metadata><defs
     id="defs1875" /><sodipodi:namedview
     pagecolor="#ffffff"
     bordercolor="#666666"
     borderopacity="1"
     objecttolerance="10"
     gridtolerance="10"
     guidetolerance="10"
     inkscape:pageopacity="0"
     inkscape:pageshadow="2"
     inkscape:window-width="1920"
     inkscape:window-height="986"
     id="namedview1873"
     showgrid="false"
     inkscape:zoom="6.390625"
     inkscape:cx="44.017378"
     inkscape:cy="47.225597"
     inkscape:window-x="-11"
     inkscape:window-y="-11"
     inkscape:window-maximized="1"
     inkscape:current-layer="Layer_1" /><path
     d="m 87.5,17.5 h -75 C 5.596875,17.5 0,23.1 0,30 v 40.625 c 0,6.903125 5.596875,12.5 12.5,12.5 h 75 c 6.903125,0 12.5,-5.596875 12.5,-12.5 V 30 C 100,23.1 94.403125,17.5 87.5,17.5 Z M 6.25,33.90625 28.121875,50.3125 6.25,66.71875 Z M 93.75,70.625 c 0,3.45 -2.80625,6.25 -6.25,6.25 h -75 c -3.446875,0 -6.25,-2.8 -6.25,-6.25 L 30.725,52.265625 44.375,62.50625 c 1.665625,1.24375 3.64375,1.875 5.625,1.875 1.978125,0 3.95625,-0.628125 5.621875,-1.875 L 69.275,52.265625 Z m 0,-3.90625 L 71.875,50.3125 93.75,33.90625 Z M 53.746875,60.00625 C 52.65625,60.825 51.3625,61.25625 50,61.25625 c -1.3625,0 -2.659375,-0.434375 -3.75,-1.25 L 33.328125,50.3125 30.725,48.359375 6.25,30.003125 V 30 c 0,-3.446875 2.803125,-6.25 6.25,-6.25 h 75 c 3.44375,0 6.25,2.803125 6.25,6.25 z"
     fill="#333333"
     id="mail"
     style="stroke-width:1;fill:#999999;fill-opacity:1" /></svg>
