<svg width="10" height="10" version="1.1" viewBox="0 0 10 10" xmlns="http://www.w3.org/2000/svg">
 <g transform="translate(-30.551 -96.652)">
  <rect x="48.882" y="100.26" width="10" height="10" fill="none" stroke-width=".1"/>
 </g>
 <g display="none">
  <rect x="-2.7935e-5" y="-3.9922e-5" width="10" height="10" fill="#0f0"/>
 </g>
 <g>
  <path transform="scale(.1)" d="m9.123 0.19141c-0.31072-0.01691-0.61101-0.014322-0.86719 0.025391-1.0247 0.15885-1.2242 0.91503-2.1602 0.83008-0.93597-0.084951-1.389-0.18634-1.7598-0.18555-0.81742 0.00174-0.93456 0.0031272-1.7637 0.59961-0.67969 0.48891-1.7015 0.13067-2.3613 0.037109-0.055931-0.0079316-0.14361 0.0064129-0.21094 0.0058593v8.4961h10v-9.7207c-0.28874-0.036342-0.58499-0.072001-0.87695-0.087891z" fill="#0ff"/>
  <path transform="scale(.1)" d="m10 2.6617c-0.3734-0.015757-0.73064-0.013517-1.0391 0.025391-1.2592 0.15885-1.5081 0.91503-2.6582 0.83008-1.1501-0.084951-1.7046-0.18634-2.1602-0.18555-1.0045 0.0017401-1.1491 0.003127-2.168 0.59961-0.56696 0.33188-1.2914 0.26699-1.9746 0.16602v5.9027h10z" fill="#ff0"/>
  <path transform="scale(.1)" d="m10 5.7516c-1.3493 0.23456-1.7757 0.8425-3.207 0.76562-1.5817-0.084951-2.3442-0.18634-2.9707-0.18555-1.3813 0.0017401-1.5813 0.003127-2.9824 0.59961-0.25537 0.1087-0.54056 0.16984-0.83984 0.20703v2.8617h10z" fill="#00f"/>
  <path transform="scale(.1)" d="m10 8.5684c-0.78835 0.24229-1.4491 0.49014-2.6504 0.43945-2.0132-0.084952-2.9838-0.18634-3.7812-0.18555-1.6674 0.0016502-2.0193 0.018461-3.5684 0.52734v0.65039h10v-1.4316z" fill="#f00"/>
 </g>
</svg>
